  0
SECTION
  2
HEADER
  9
$ACADVER
  1
AC1014
  9
$ACADMAINTVER
 70
     9
  9
$DWGCODEPAGE
  3
ANSI_1252
  9
$INSBASE
 10
0.0
 20
0.0
 30
0.0
  9
$EXTMIN
 10
0.0
 20
0.0
 30
0.0
  9
$EXTMAX
 10
0.0
 20
0.0
 30
0.0
  9
$LIMMIN
 10
0.0
 20
0.0
  9
$LIMMAX
 10
0.0
 20
0.0
  9
$ORTHOMODE
 70
     0
  9
$REGENMODE
 70
     1
  9
$FILLMODE
 70
     1
  9
$QTEXTMODE
 70
     0
  9
$MIRRTEXT
 70
     1
  9
$DRAGMODE
 70
     2
  9
$LTSCALE
 40
1.0
  9
$OSMODE
 70
    37
  9
$ATTMODE
 70
     1
  9
$TEXTSIZE
 40
2.5
  9
$TRACEWID
 40
1.0
  9
$TEXTSTYLE
  7
STANDARD
  9
$CLAYER
  8
0
  9
$CELTYPE
  6
BYLAYER
  9
$CECOLOR
 62
   256
  9
$CELTSCALE
 40
1.0
  9
$DELOBJ
 70
     1
  9
$DISPSILH
 70
     0
  9
$DIMSCALE
 40
1.0
  9
$DIMASZ
 40
2.5
  9
$DIMEXO
 40
0.625
  9
$DIMDLI
 40
3.75
  9
$DIMRND
 40
0.0
  9
$DIMDLE
 40
0.0
  9
$DIMEXE
 40
1.25
  9
$DIMTP
 40
0.0
  9
$DIMTM
 40
0.0
  9
$DIMTXT
 40
2.5
  9
$DIMCEN
 40
2.5
  9
$DIMTSZ
 40
0.0
  9
$DIMTOL
 70
     0
  9
$DIMLIM
 70
     0
  9
$DIMTIH
 70
     0
  9
$DIMTOH
 70
     0
  9
$DIMSE1
 70
     0
  9
$DIMSE2
 70
     0
  9
$DIMTAD
 70
     1
  9
$DIMZIN
 70
     8
  9
$DIMBLK
  1

  9
$DIMASO
 70
     1
  9
$DIMSHO
 70
     1
  9
$DIMPOST
  1

  9
$DIMAPOST
  1

  9
$DIMALT
 70
     0
  9
$DIMALTD
 70
     3
  9
$DIMALTF
 40
0.0393700787
  9
$DIMLFAC
 40
1.0
  9
$DIMTOFL
 70
     1
  9
$DIMTVP
 40
0.0
  9
$DIMTIX
 70
     0
  9
$DIMSOXD
 70
     0
  9
$DIMSAH
 70
     0
  9
$DIMBLK1
  1

  9
$DIMBLK2
  1

  9
$DIMSTYLE
  2
ISO-25
  9
$DIMCLRD
 70
     0
  9
$DIMCLRE
 70
     0
  9
$DIMCLRT
 70
     0
  9
$DIMTFAC
 40
1.0
  9
$DIMGAP
 40
0.625
  9
$DIMJUST
 70
     0
  9
$DIMSD1
 70
     0
  9
$DIMSD2
 70
     0
  9
$DIMTOLJ
 70
     0
  9
$DIMTZIN
 70
     8
  9
$DIMALTZ
 70
     0
  9
$DIMALTTZ
 70
     0
  9
$DIMFIT
 70
     3
  9
$DIMUPT
 70
     0
  9
$DIMUNIT
 70
     2
  9
$DIMDEC
 70
     2
  9
$DIMTDEC
 70
     2
  9
$DIMALTU
 70
     2
  9
$DIMALTTD
 70
     3
  9
$DIMTXSTY
  7
STANDARD
  9
$DIMAUNIT
 70
     0
  9
$LUNITS
 70
     2
  9
$LUPREC
 70
     4
  9
$SKETCHINC
 40
1.0
  9
$FILLETRAD
 40
0.0
  9
$AUNITS
 70
     0
  9
$AUPREC
 70
     0
  9
$MENU
  1
.
  9
$ELEVATION
 40
0.0
  9
$PELEVATION
 40
0.0
  9
$THICKNESS
 40
0.0
  9
$LIMCHECK
 70
     0
  9
$CHAMFERA
 40
0.0
  9
$CHAMFERB
 40
0.0
  9
$CHAMFERC
 40
0.0
  9
$CHAMFERD
 40
0.0
  9
$SKPOLY
 70
     0
  9
$TDCREATE
 40
2460773.654603947
  9
$TDUPDATE
 40
2460773.654604179
  9
$TDINDWG
 40
0.0000000116
  9
$TDUSRTIMER
 40
0.0000000116
  9
$USRTIMER
 70
     1
  9
$ANGBASE
 50
0.0
  9
$ANGDIR
 70
     0
  9
$PDMODE
 70
     0
  9
$PDSIZE
 40
0.0
  9
$PLINEWID
 40
0.0
  9
$COORDS
 70
     1
  9
$SPLFRAME
 70
     0
  9
$SPLINETYPE
 70
     6
  9
$SPLINESEGS
 70
     8
  9
$ATTDIA
 70
     0
  9
$ATTREQ
 70
     1
  9
$HANDLING
 70
     1
  9
$HANDSEED
  5
109
  9
$SURFTAB1
 70
     6
  9
$SURFTAB2
 70
     6
  9
$SURFTYPE
 70
     6
  9
$SURFU
 70
     6
  9
$SURFV
 70
     6
  9
$UCSNAME
  2

  9
$UCSORG
 10
0.0
 20
0.0
 30
0.0
  9
$UCSXDIR
 10
1.0
 20
0.0
 30
0.0
  9
$UCSYDIR
 10
0.0
 20
1.0
 30
0.0
  9
$PUCSNAME
  2

  9
$PUCSORG
 10
0.0
 20
0.0
 30
0.0
  9
$PUCSXDIR
 10
1.0
 20
0.0
 30
0.0
  9
$PUCSYDIR
 10
0.0
 20
1.0
 30
0.0
  9
$USERI1
 70
     0
  9
$USERI2
 70
     0
  9
$USERI3
 70
     0
  9
$USERI4
 70
     0
  9
$USERI5
 70
     0
  9
$USERR1
 40
0.0
  9
$USERR2
 40
0.0
  9
$USERR3
 40
0.0
  9
$USERR4
 40
0.0
  9
$USERR5
 40
0.0
  9
$WORLDVIEW
 70
     1
  9
$SHADEDGE
 70
     3
  9
$SHADEDIF
 70
    70
  9
$TILEMODE
 70
     1
  9
$MAXACTVP
 70
    64
  9
$PINSBASE
 10
0.0
 20
0.0
 30
0.0
  9
$PLIMCHECK
 70
     0
  9
$PEXTMIN
 10
0.0
 20
0.0
 30
0.0
  9
$PEXTMAX
 10
0.0
 20
0.0
 30
0.0
  9
$PLIMMIN
 10
0.0
 20
0.0
  9
$PLIMMAX
 10
0.0
 20
0.0
  9
$UNITMODE
 70
     0
  9
$VISRETAIN
 70
     1
  9
$PLINEGEN
 70
     0
  9
$PSLTSCALE
 70
     1
  9
$TREEDEPTH
 70
  3020
  9
$PICKSTYLE
 70
     1
  9
$CMLSTYLE
  2
STANDARD
  9
$CMLJUST
 70
     0
  9
$CMLSCALE
 40
20.0
  9
$PROXYGRAPHICS
 70
     1
  9
$MEASUREMENT
 70
     1
  0
ENDSEC
  0
SECTION
  2
CLASSES
  0
CLASS
  1
ACDBDICTIONARYWDFLT
  2
AcDbDictionaryWithDefault
  3
ObjectDBX Classes
 90
        0
280
     0
281
     0
  0
CLASS
  1
VISUALSTYLE
  2
AcDbVisualStyle
  3
ObjectDBX Classes
 90
     4095
280
     0
281
     0
  0
CLASS
  1
MATERIAL
  2
AcDbMaterial
  3
ObjectDBX Classes
 90
     1153
280
     0
281
     0
  0
CLASS
  1
SCALE
  2
AcDbScale
  3
ObjectDBX Classes
 90
     1153
280
     0
281
     0
  0
CLASS
  1
TABLESTYLE
  2
AcDbTableStyle
  3
ObjectDBX Classes
 90
     4095
280
     0
281
     0
  0
CLASS
  1
MLEADERSTYLE
  2
AcDbMLeaderStyle
  3
ACDB_MLEADERSTYLE_CLASS
 90
     4095
280
     0
281
     0
  0
CLASS
  1
SUN
  2
AcDbSun
  3
SCENEOE
 90
     1153
280
     0
281
     0
  0
CLASS
  1
DICTIONARYVAR
  2
AcDbDictionaryVar
  3
ObjectDBX Classes
 90
        0
280
     0
281
     0
  0
CLASS
  1
XRECORD
  2
AcDbXrecord
  3
ObjectDBX Classes
 90
        0
280
     0
281
     0
  0
CLASS
  1
LWPOLYLINE
  2
AcDbPolyline
  3
ObjectDBX Classes
 90
        0
280
     0
281
     1
  0
CLASS
  1
HATCH
  2
AcDbHatch
  3
ObjectDBX Classes
 90
        0
280
     0
281
     1
  0
CLASS
  1
ACDBPLACEHOLDER
  2
AcDbPlaceHolder
  3
ObjectDBX Classes
 90
        0
280
     0
281
     0
  0
CLASS
  1
LAYOUT
  2
AcDbLayout
  3
ObjectDBX Classes
 90
        0
280
     0
281
     0
  0
ENDSEC
  0
SECTION
  2
TABLES
  0
TABLE
  2
VPORT
  5
8
102
{ACAD_XDICTIONARY
360
FE
102
}
330
0
100
AcDbSymbolTable
 70
     1
  0
VPORT
  5
29
330
8
100
AcDbSymbolTableRecord
100
AcDbViewportTableRecord
  2
*ACTIVE
 70
     0
 10
0.0
 20
0.0
 11
1.0
 21
1.0
 12
344.1869158879
 22
148.5
 13
0.0
 23
0.0
 14
10.0
 24
10.0
 15
10.0
 25
10.0
 16
0.0
 26
0.0
 36
1.0
 17
0.0
 27
0.0
 37
0.0
 40
297.0
 41
1.9729729729
 42
50.0
 43
0.0
 44
0.0
 50
0.0
 51
0.0
 71
     0
 72
   100
 73
     1
 74
     3
 75
     0
 76
     0
 77
     0
 78
     0
  0
ENDTAB
  0
TABLE
  2
LTYPE
  5
5
330
0
100
AcDbSymbolTable
 70
     1
  0
LTYPE
  5
14
330
5
100
AcDbSymbolTableRecord
100
AcDbLinetypeTableRecord
  2
BYBLOCK
 70
     0
  3

 72
    65
 73
     0
 40
0.0
  0
LTYPE
  5
15
330
5
100
AcDbSymbolTableRecord
100
AcDbLinetypeTableRecord
  2
BYLAYER
 70
     0
  3

 72
    65
 73
     0
 40
0.0
  0
LTYPE
  5
16
330
5
100
AcDbSymbolTableRecord
100
AcDbLinetypeTableRecord
  2
CONTINUOUS
 70
     0
  3
Solid line
 72
    65
 73
     0
 40
0.0
  0
ENDTAB
  0
TABLE
  2
LAYER
  5
2
330
0
100
AcDbSymbolTable
 70
     3
  0
LAYER
  5
10
330
2
100
AcDbSymbolTableRecord
100
AcDbLayerTableRecord
  2
0
 70
     0
 62
     7
  6
CONTINUOUS
  0
LAYER
  5
5E
330
2
100
AcDbSymbolTableRecord
100
AcDbLayerTableRecord
  2
INTERIOR_LOOPS
 70
     0
 62
     7
  6
CONTINUOUS
  0
LAYER
  5
6B
330
2
100
AcDbSymbolTableRecord
100
AcDbLayerTableRecord
  2
OUTER_LOOP
 70
     0
 62
     7
  6
CONTINUOUS
  0
ENDTAB
  0
TABLE
  2
STYLE
  5
3
330
0
100
AcDbSymbolTable
 70
     1
  0
STYLE
  5
11
330
3
100
AcDbSymbolTableRecord
100
AcDbTextStyleTableRecord
  2
STANDARD
 70
     0
 40
0.0
 41
1.0
 50
0.0
 71
     0
 42
2.5
  3
txt
  4

  0
ENDTAB
  0
TABLE
  2
VIEW
  5
6
330
0
100
AcDbSymbolTable
 70
     0
  0
ENDTAB
  0
TABLE
  2
UCS
  5
7
330
0
100
AcDbSymbolTable
 70
     0
  0
ENDTAB
  0
TABLE
  2
APPID
  5
9
330
0
100
AcDbSymbolTable
 70
     2
  0
APPID
  5
12
330
9
100
AcDbSymbolTableRecord
100
AcDbRegAppTableRecord
  2
ACAD
 70
     0
  0
APPID
  5
108
330
9
100
AcDbSymbolTableRecord
100
AcDbRegAppTableRecord
  2
ACAD_MLEADERVER
 70
     0
  0
ENDTAB
  0
TABLE
  2
DIMSTYLE
  5
A
330
0
100
AcDbSymbolTable
 70
     1
  0
DIMSTYLE
105
27
330
A
100
AcDbSymbolTableRecord
100
AcDbDimStyleTableRecord
  2
ISO-25
 70
     0
  3

  4

  5

  6

  7

 40
1.0
 41
2.5
 42
0.625
 43
3.75
 44
1.25
 45
0.0
 46
0.0
 47
0.0
 48
0.0
140
2.5
141
2.5
142
0.0
143
0.0393700787
144
1.0
145
0.0
146
1.0
147
0.625
 71
     0
 72
     0
 73
     0
 74
     0
 75
     0
 76
     0
 77
     1
 78
     8
170
     0
171
     3
172
     1
173
     0
174
     0
175
     0
176
     0
177
     0
178
     0
270
     2
271
     2
272
     2
273
     2
274
     3
340
11
275
     0
280
     0
281
     0
282
     0
283
     0
284
     8
285
     0
286
     0
287
     3
288
     0
  0
ENDTAB
  0
TABLE
  2
BLOCK_RECORD
  5
1
330
0
100
AcDbSymbolTable
 70
     0
  0
BLOCK_RECORD
  5
1F
330
1
100
AcDbSymbolTableRecord
100
AcDbBlockTableRecord
  2
*MODEL_SPACE
  0
BLOCK_RECORD
  5
1B
330
1
100
AcDbSymbolTableRecord
100
AcDbBlockTableRecord
  2
*PAPER_SPACE
  0
ENDTAB
  0
ENDSEC
  0
SECTION
  2
BLOCKS
  0
BLOCK
  5
20
330
1F
100
AcDbEntity
  8
0
100
AcDbBlockBegin
  2
*MODEL_SPACE
 70
     0
 10
0.0
 20
0.0
 30
0.0
  3
*MODEL_SPACE
  1

  0
ENDBLK
  5
21
330
1F
100
AcDbEntity
  8
0
100
AcDbBlockEnd
  0
BLOCK
  5
1C
330
1B
100
AcDbEntity
 67
     1
  8
0
100
AcDbBlockBegin
  2
*PAPER_SPACE
 70
     0
 10
0.0
 20
0.0
 30
0.0
  3
*PAPER_SPACE
  1

  0
ENDBLK
  5
1D
330
1B
100
AcDbEntity
 67
     1
  8
0
100
AcDbBlockEnd
  0
ENDSEC
  0
SECTION
  2
ENTITIES
  0
CIRCLE
  5
5F
330
1F
100
AcDbEntity
  8
INTERIOR_LOOPS
  6
CONTINUOUS
 62
     3
100
AcDbCircle
 10
3.1971859547
 20
40.3920393201
 30
0.0
 40
1.500000000000001
  0
LINE
  5
60
330
1F
100
AcDbEntity
  8
INTERIOR_LOOPS
  6
CONTINUOUS
 62
     3
100
AcDbLine
 10
11.5520356796
 20
17.4530560358
 30
0.0
 11
11.5520356796
 21
23.8155560358
 31
0.0
  0
LINE
  5
61
330
1F
100
AcDbEntity
  8
INTERIOR_LOOPS
  6
CONTINUOUS
 62
     3
100
AcDbLine
 10
11.5520356796
 20
23.8155560358
 30
0.0
 11
11.1895356796
 21
23.8155560358
 31
0.0
  0
LINE
  5
62
330
1F
100
AcDbEntity
  8
INTERIOR_LOOPS
  6
CONTINUOUS
 62
     3
100
AcDbLine
 10
11.1895356796
 20
23.8155560358
 30
0.0
 11
11.1895356796
 21
29.8155560358
 31
0.0
  0
LINE
  5
63
330
1F
100
AcDbEntity
  8
INTERIOR_LOOPS
  6
CONTINUOUS
 62
     3
100
AcDbLine
 10
11.1895356796
 20
29.8155560358
 30
0.0
 11
8.1895356796
 21
31.8155560358
 31
0.0
  0
LINE
  5
64
330
1F
100
AcDbEntity
  8
INTERIOR_LOOPS
  6
CONTINUOUS
 62
     3
100
AcDbLine
 10
8.1895356796
 20
31.8155560358
 30
0.0
 11
5.1895356796
 21
29.8155560358
 31
0.0
  0
LINE
  5
65
330
1F
100
AcDbEntity
  8
INTERIOR_LOOPS
  6
CONTINUOUS
 62
     3
100
AcDbLine
 10
5.1895356796
 20
29.8155560358
 30
0.0
 11
5.1895356796
 21
9.4530560358
 31
0.0
  0
LINE
  5
66
330
1F
100
AcDbEntity
  8
INTERIOR_LOOPS
  6
CONTINUOUS
 62
     3
100
AcDbLine
 10
5.1895356796
 20
9.4530560358
 30
0.0
 11
9.1895356796
 21
6.4530560358
 31
0.0
  0
LINE
  5
67
330
1F
100
AcDbEntity
  8
INTERIOR_LOOPS
  6
CONTINUOUS
 62
     3
100
AcDbLine
 10
9.1895356796
 20
6.4530560358
 30
0.0
 11
13.1895356796
 21
9.4530560358
 31
0.0
  0
LINE
  5
68
330
1F
100
AcDbEntity
  8
INTERIOR_LOOPS
  6
CONTINUOUS
 62
     3
100
AcDbLine
 10
13.1895356796
 20
9.4530560358
 30
0.0
 11
13.1895356796
 21
16.1247628905
 31
0.0
  0
LINE
  5
69
330
1F
100
AcDbEntity
  8
INTERIOR_LOOPS
  6
CONTINUOUS
 62
     3
100
AcDbLine
 10
13.1895356796
 20
16.1247628905
 30
0.0
 11
11.8612425343
 21
17.4530560358
 31
0.0
  0
LINE
  5
6A
330
1F
100
AcDbEntity
  8
INTERIOR_LOOPS
  6
CONTINUOUS
 62
     3
100
AcDbLine
 10
11.8612425343
 20
17.4530560358
 30
0.0
 11
11.5520356796
 21
17.4530560358
 31
0.0
  0
LINE
  5
6C
330
1F
100
AcDbEntity
  8
OUTER_LOOP
  6
CONTINUOUS
 62
     3
100
AcDbLine
 10
61.0
 20
15.0
 30
0.0
 11
55.0
 21
15.0
 31
0.0
  0
LINE
  5
6D
330
1F
100
AcDbEntity
  8
OUTER_LOOP
  6
CONTINUOUS
 62
     3
100
AcDbLine
 10
63.0
 20
13.0
 30
0.0
 11
61.0
 21
15.0
 31
0.0
  0
LINE
  5
6E
330
1F
100
AcDbEntity
  8
OUTER_LOOP
  6
CONTINUOUS
 62
     3
100
AcDbLine
 10
63.0
 20
2.0
 30
0.0
 11
63.0
 21
13.0
 31
0.0
  0
LINE
  5
6F
330
1F
100
AcDbEntity
  8
OUTER_LOOP
  6
CONTINUOUS
 62
     3
100
AcDbLine
 10
61.0
 20
0.0
 30
0.0
 11
63.0
 21
2.0
 31
0.0
  0
LINE
  5
70
330
1F
100
AcDbEntity
  8
OUTER_LOOP
  6
CONTINUOUS
 62
     3
100
AcDbLine
 10
0.0
 20
0.0
 30
0.0
 11
61.0
 21
0.0
 31
0.0
  0
LINE
  5
71
330
1F
100
AcDbEntity
  8
OUTER_LOOP
  6
CONTINUOUS
 62
     3
100
AcDbLine
 10
-2.0
 20
2.0
 30
0.0
 11
0.0
 21
0.0
 31
0.0
  0
LINE
  5
72
330
1F
100
AcDbEntity
  8
OUTER_LOOP
  6
CONTINUOUS
 62
     3
100
AcDbLine
 10
-2.0
 20
43.0
 30
0.0
 11
-2.0
 21
2.0
 31
0.0
  0
LINE
  5
73
330
1F
100
AcDbEntity
  8
OUTER_LOOP
  6
CONTINUOUS
 62
     3
100
AcDbLine
 10
0.0
 20
45.0
 30
0.0
 11
-2.0
 21
43.0
 31
0.0
  0
LINE
  5
74
330
1F
100
AcDbEntity
  8
OUTER_LOOP
  6
CONTINUOUS
 62
     3
100
AcDbLine
 10
5.9628024579
 20
45.0
 30
0.0
 11
0.0
 21
45.0
 31
0.0
  0
LINE
  5
75
330
1F
100
AcDbEntity
  8
OUTER_LOOP
  6
CONTINUOUS
 62
     3
100
AcDbLine
 10
17.2246937414
 20
36.3306977342
 30
0.0
 11
5.9628024579
 21
45.0
 31
0.0
  0
ARC
  5
76
330
1F
100
AcDbEntity
  8
OUTER_LOOP
  6
CONTINUOUS
 62
     3
100
AcDbCircle
 10
20.4306094556
 20
39.4885616377
 30
0.0
 40
4.5
100
AcDbArc
 50
224.5673775977
 51
76.6548261019
  0
LINE
  5
77
330
1F
100
AcDbEntity
  8
OUTER_LOOP
  6
CONTINUOUS
 62
     3
100
AcDbLine
 10
23.182266771
 20
45.0
 30
0.0
 11
21.4692857404
 21
43.8670489993
 31
0.0
  0
LINE
  5
78
330
1F
100
AcDbEntity
  8
OUTER_LOOP
  6
CONTINUOUS
 62
     3
100
AcDbLine
 10
51.0
 20
45.0
 30
0.0
 11
23.182266771
 21
45.0
 31
0.0
  0
LINE
  5
79
330
1F
100
AcDbEntity
  8
OUTER_LOOP
  6
CONTINUOUS
 62
     3
100
AcDbLine
 10
53.0
 20
43.0
 30
0.0
 11
51.0
 21
45.0
 31
0.0
  0
LINE
  5
7A
330
1F
100
AcDbEntity
  8
OUTER_LOOP
  6
CONTINUOUS
 62
     3
100
AcDbLine
 10
53.0
 20
17.0
 30
0.0
 11
53.0
 21
43.0
 31
0.0
  0
LINE
  5
7B
330
1F
100
AcDbEntity
  8
OUTER_LOOP
  6
CONTINUOUS
 62
     3
100
AcDbLine
 10
55.0
 20
15.0
 30
0.0
 11
53.0
 21
17.0
 31
0.0
  0
ARC
  5
7C
330
1F
100
AcDbEntity
  8
INTERIOR_LOOPS
  6
CONTINUOUS
 62
     3
100
AcDbCircle
 10
19.485805614
 20
102.4464219333
 30
0.0
 40
70.89719662268972
100
AcDbArc
 50
281.3068343343
 51
284.4829651335
  0
LINE
  5
7D
330
1F
100
AcDbEntity
  8
INTERIOR_LOOPS
  6
CONTINUOUS
 62
     3
100
AcDbLine
 10
33.3861306279
 20
32.9252492341
 30
0.0
 11
33.3861306279
 21
31.5080985791
 31
0.0
  0
LINE
  5
7E
330
1F
100
AcDbEntity
  8
INTERIOR_LOOPS
  6
CONTINUOUS
 62
     3
100
AcDbLine
 10
33.3861306279
 20
31.5080985791
 30
0.0
 11
35.4853323205
 21
31.1013085296
 31
0.0
  0
LINE
  5
7F
330
1F
100
AcDbEntity
  8
INTERIOR_LOOPS
  6
CONTINUOUS
 62
     3
100
AcDbLine
 10
35.4853323205
 20
31.1013085296
 30
0.0
 11
37.2166378508
 21
30.6276494695
 31
0.0
  0
ARC
  5
80
330
1F
100
AcDbEntity
  8
INTERIOR_LOOPS
  6
CONTINUOUS
 62
     3
100
AcDbCircle
 10
28.7868042828
 20
59.0355862313
 30
0.0
 40
29.63229598003645
100
AcDbArc
 50
278.9291669621
 51
286.5278448587
  0
LINE
  5
81
330
1F
100
AcDbEntity
  8
INTERIOR_LOOPS
  6
CONTINUOUS
 62
     3
100
AcDbLine
 10
33.3861306279
 20
29.7624046103
 30
0.0
 11
33.3861306279
 21
28.2403940701
 31
0.0
  0
ARC
  5
82
330
1F
100
AcDbEntity
  8
INTERIOR_LOOPS
  6
CONTINUOUS
 62
     3
100
AcDbCircle
 10
20.6055918705
 20
83.5405094776
 30
0.0
 40
56.75777422527132
100
AcDbArc
 50
283.0132798078
 51
288.9772675054
  0
LINE
  5
83
330
1F
100
AcDbEntity
  8
INTERIOR_LOOPS
  6
CONTINUOUS
 62
     3
100
AcDbLine
 10
39.0628220542
 20
29.8676523806
 30
0.0
 11
39.0628220542
 21
31.4361392762
 31
0.0
  0
LINE
  5
84
330
1F
100
AcDbEntity
  8
INTERIOR_LOOPS
  6
CONTINUOUS
 62
     3
100
AcDbLine
 10
39.0628220542
 20
31.4361392762
 30
0.0
 11
36.0529440583
 21
32.1792912183
 31
0.0
  0
LINE
  5
85
330
1F
100
AcDbEntity
  8
INTERIOR_LOOPS
  6
CONTINUOUS
 62
     3
100
AcDbLine
 10
36.0529440583
 20
32.1792912183
 30
0.0
 11
39.0628220542
 21
32.99869439
 31
0.0
  0
LINE
  5
86
330
1F
100
AcDbEntity
  8
INTERIOR_LOOPS
  6
CONTINUOUS
 62
     3
100
AcDbLine
 10
39.0628220542
 20
32.99869439
 30
0.0
 11
39.0628220542
 21
34.5887147983
 31
0.0
  0
ARC
  5
87
330
1F
100
AcDbEntity
  8
INTERIOR_LOOPS
  6
CONTINUOUS
 62
     3
100
AcDbCircle
 10
14.953472037
 20
-39.3292360222
 30
0.0
 40
77.75039685909096
100
AcDbArc
 50
71.9355553162
 51
76.2860441496
  0
LINE
  5
88
330
1F
100
AcDbEntity
  8
INTERIOR_LOOPS
  6
CONTINUOUS
 62
     3
100
AcDbLine
 10
33.3861306279
 20
36.2046061217
 30
0.0
 11
33.3861306279
 21
34.6703355779
 31
0.0
  0
ARC
  5
89
330
1F
100
AcDbEntity
  8
INTERIOR_LOOPS
  6
CONTINUOUS
 62
     3
100
AcDbCircle
 10
29.0862428091
 20
6.813163312
 30
0.0
 40
28.18707295740424
100
AcDbArc
 50
73.2351702124
 51
81.2253713446
  0
LINE
  5
8A
330
1F
100
AcDbEntity
  8
INTERIOR_LOOPS
  6
CONTINUOUS
 62
     3
100
AcDbLine
 10
33.3861306266
 20
20.1142971783
 30
0.0
 11
33.3861306266
 21
18.6764042655
 31
0.0
  0
LINE
  5
8B
330
1F
100
AcDbEntity
  8
INTERIOR_LOOPS
  6
CONTINUOUS
 62
     3
100
AcDbLine
 10
33.3861306266
 20
18.6764042655
 30
0.0
 11
39.0628220542
 21
18.6764042655
 31
0.0
  0
LINE
  5
8C
330
1F
100
AcDbEntity
  8
INTERIOR_LOOPS
  6
CONTINUOUS
 62
     3
100
AcDbLine
 10
39.0628220542
 20
18.6764042655
 30
0.0
 11
39.0628220542
 21
20.1142971783
 31
0.0
  0
LINE
  5
8D
330
1F
100
AcDbEntity
  8
INTERIOR_LOOPS
  6
CONTINUOUS
 62
     3
100
AcDbLine
 10
39.0628220542
 20
20.1142971783
 30
0.0
 11
36.2822025863
 21
20.1142971783
 31
0.0
  0
ARC
  5
8E
330
1F
100
AcDbEntity
  8
INTERIOR_LOOPS
  6
CONTINUOUS
 62
     3
100
AcDbCircle
 10
42.7369031586
 20
12.5301045499
 30
0.0
 40
9.959073114703267
100
AcDbArc
 50
111.6489015344
 51
130.4002046591
  0
LINE
  5
8F
330
1F
100
AcDbEntity
  8
INTERIOR_LOOPS
  6
CONTINUOUS
 62
     3
100
AcDbLine
 10
39.062822062
 20
21.7866841233
 30
0.0
 11
39.0628220584
 21
24.6504784169
 31
0.0
  0
LINE
  5
90
330
1F
100
AcDbEntity
  8
INTERIOR_LOOPS
  6
CONTINUOUS
 62
     3
100
AcDbLine
 10
39.0628220584
 20
24.6504784169
 30
0.0
 11
38.1593518485
 21
24.8106388913
 31
0.0
  0
LINE
  5
91
330
1F
100
AcDbEntity
  8
INTERIOR_LOOPS
  6
CONTINUOUS
 62
     3
100
AcDbLine
 10
38.1593518485
 20
24.8106388913
 30
0.0
 11
38.1593518485
 21
25.6018442879
 31
0.0
  0
LINE
  5
92
330
1F
100
AcDbEntity
  8
INTERIOR_LOOPS
  6
CONTINUOUS
 62
     3
100
AcDbLine
 10
38.1593518485
 20
25.6018442879
 30
0.0
 11
36.990661104
 21
25.6018442879
 31
0.0
  0
LINE
  5
93
330
1F
100
AcDbEntity
  8
INTERIOR_LOOPS
  6
CONTINUOUS
 62
     3
100
AcDbLine
 10
36.990661104
 20
25.6018442879
 30
0.0
 11
36.990661104
 21
25.1636990335
 31
0.0
  0
LINE
  5
94
330
1F
100
AcDbEntity
  8
INTERIOR_LOOPS
  6
CONTINUOUS
 62
     3
100
AcDbLine
 10
36.990661104
 20
25.1636990335
 30
0.0
 11
34.8551228891
 21
25.8788364229
 31
0.0
  0
LINE
  5
95
330
1F
100
AcDbEntity
  8
INTERIOR_LOOPS
  6
CONTINUOUS
 62
     3
100
AcDbLine
 10
34.8551228891
 20
25.8788364229
 30
0.0
 11
36.990661104
 21
26.5023824488
 31
0.0
  0
LINE
  5
96
330
1F
100
AcDbEntity
  8
INTERIOR_LOOPS
  6
CONTINUOUS
 62
     3
100
AcDbLine
 10
36.990661104
 20
26.5023824488
 30
0.0
 11
36.990661104
 21
26.0642371944
 31
0.0
  0
LINE
  5
97
330
1F
100
AcDbEntity
  8
INTERIOR_LOOPS
  6
CONTINUOUS
 62
     3
100
AcDbLine
 10
36.990661104
 20
26.0642371944
 30
0.0
 11
38.1593518449
 21
26.0642371944
 31
0.0
  0
LINE
  5
98
330
1F
100
AcDbEntity
  8
INTERIOR_LOOPS
  6
CONTINUOUS
 62
     3
100
AcDbLine
 10
38.1593518449
 20
26.0642371944
 30
0.0
 11
38.1593518449
 21
26.8531461356
 31
0.0
  0
LINE
  5
99
330
1F
100
AcDbEntity
  8
INTERIOR_LOOPS
  6
CONTINUOUS
 62
     3
100
AcDbLine
 10
38.1593518449
 20
26.8531461356
 30
0.0
 11
39.0628220542
 21
27.1061177942
 31
0.0
  0
LINE
  5
9A
330
1F
100
AcDbEntity
  8
INTERIOR_LOOPS
  6
CONTINUOUS
 62
     3
100
AcDbLine
 10
39.0628220542
 20
27.1061177942
 30
0.0
 11
39.0628220542
 21
28.6434530336
 31
0.0
  0
ARC
  5
9B
330
1F
100
AcDbEntity
  8
INTERIOR_LOOPS
  6
CONTINUOUS
 62
     3
100
AcDbCircle
 10
46.5520247735
 20
-1.1303670305
 30
0.0
 40
30.70127877755159
100
AcDbArc
 50
104.1190703178
 51
115.3938788744
  0
LINE
  5
9C
330
1F
100
AcDbEntity
  8
INTERIOR_LOOPS
  6
CONTINUOUS
 62
     3
100
AcDbLine
 10
33.3861306208
 20
26.604588346
 30
0.0
 11
33.3861306231
 21
25.0541290141
 31
0.0
  0
ARC
  5
9D
330
1F
100
AcDbEntity
  8
INTERIOR_LOOPS
  6
CONTINUOUS
 62
     3
100
AcDbCircle
 10
50.958583553
 20
66.7947874235
 30
0.0
 40
45.2887808007746
100
AcDbArc
 50
247.1693320572
 51
254.2188481676
  0
ARC
  5
9E
330
1F
100
AcDbEntity
  8
INTERIOR_LOOPS
  6
CONTINUOUS
 62
     3
100
AcDbCircle
 10
44.3281792473
 20
11.6698840986
 30
0.0
 40
12.86782972205361
100
AcDbArc
 50
116.2261944376
 51
130.0229846552
  0
ARC
  5
9F
330
1F
100
AcDbEntity
  8
INTERIOR_LOOPS
  6
CONTINUOUS
 62
     3
100
AcDbCircle
 10
28.1706772057
 20
13.2141501908
 30
0.0
 40
11.45347039246907
100
AcDbArc
 50
46.5122874673
 51
62.9118939253
  0
LINE
  5
A0
330
1F
100
AcDbEntity
  8
INTERIOR_LOOPS
  6
CONTINUOUS
 62
     3
100
AcDbLine
 10
33.3861306265
 20
23.4112590775
 30
0.0
 11
33.3861306266
 21
21.7866841202
 31
0.0
  0
ARC
  5
A1
330
1F
100
AcDbEntity
  8
INTERIOR_LOOPS
  6
CONTINUOUS
 62
     3
100
AcDbCircle
 10
27.1638567797
 20
11.1228990522
 30
0.0
 40
12.34637614048178
100
AcDbArc
 50
46.7408990492
 51
59.7366178195
  0
LINE
  5
A2
330
1F
100
AcDbEntity
  8
INTERIOR_LOOPS
  6
CONTINUOUS
 62
     3
100
AcDbLine
 10
35.6248120177
 20
20.1142971783
 30
0.0
 11
33.3861306266
 21
20.1142971783
 31
0.0
  0
SPLINE
  5
A3
330
1F
100
AcDbEntity
  8
INTERIOR_LOOPS
  6
CONTINUOUS
 62
     3
100
AcDbSpline
210
0.0
220
0.0
230
1.0
 70
     8
 71
     3
 72
     9
 73
     5
 74
     0
 42
0.0000000034817645
 43
0.0000000001
 40
0.0
 40
0.0
 40
0.0
 40
0.0
 40
0.6127115317565229
 40
1.0
 40
1.0
 40
1.0
 40
1.0
 10
35.84422679429478
 20
13.81335679489068
 30
0.0
 10
36.34782723576219
 20
14.18107391641044
 30
0.0
 10
36.63351756332012
 20
15.08447675014344
 30
0.0
 10
37.0239226898639
 20
15.93651956492149
 30
0.0
 10
37.21663785051175
 20
16.24510550489298
 30
0.0
  0
SPLINE
  5
A4
330
1F
100
AcDbEntity
  8
INTERIOR_LOOPS
  6
CONTINUOUS
 62
     3
100
AcDbSpline
210
0.0
220
0.0
230
1.0
 70
     8
 71
     2
 72
     6
 73
     3
 74
     0
 42
0.0000000087939868
 43
0.0000000001
 40
0.0
 40
0.0
 40
0.0
 40
1.0
 40
1.0
 40
1.0
 10
37.21663785051175
 20
16.24510550489298
 30
0.0
 10
37.72848424786246
 20
16.57598114873932
 30
0.0
 10
37.94180583187042
 20
16.09336321677355
 30
0.0
  0
ARC
  5
A5
330
1F
100
AcDbEntity
  8
INTERIOR_LOOPS
  6
CONTINUOUS
 62
     3
100
AcDbCircle
 10
31.0846601526
 20
15.553924419
 30
0.0
 40
6.878331271662094
100
AcDbArc
 50
345.3418800761
 51
4.4980877789
  0
LINE
  5
A6
330
1F
100
AcDbEntity
  8
INTERIOR_LOOPS
  6
CONTINUOUS
 62
     3
100
AcDbLine
 10
37.7391222218
 20
13.8133567951
 30
0.0
 11
38.9650667924
 21
13.8133567951
 31
0.0
  0
SPLINE
  5
A7
330
1F
100
AcDbEntity
  8
INTERIOR_LOOPS
  6
CONTINUOUS
 62
     3
100
AcDbSpline
210
0.0
220
0.0
230
1.0
 70
     8
 71
     3
 72
    30
 73
    26
 74
     0
 42
0.0000000008294554
 43
0.0000000001
 40
0.0
 40
0.0
 40
0.0
 40
0.0
 40
0.0858483640807359
 40
0.1546987999889565
 40
0.2150026000085675
 40
0.248462522313546
 40
0.28573503028631
 40
0.3356342548934135
 40
0.373577622350722
 40
0.401575731195264
 40
0.434046253522057
 40
0.477677853843315
 40
0.5097222660492711
 40
0.542230435854977
 40
0.574685479878031
 40
0.60735509031362
 40
0.652572281835457
 40
0.700917109148822
 40
0.745297070410237
 40
0.7652666955524
 40
0.790596869820154
 40
0.815110674621881
 40
0.853115519194477
 40
0.912477275207109
 40
1.0
 40
1.0
 40
1.0
 40
1.0
 10
38.96506679242468
 20
13.81335679512297
 30
0.0
 10
39.0418414603244
 20
14.14269171862165
 30
0.0
 10
39.14070810018676
 20
14.74714788700136
 30
0.0
 10
39.15904147600427
 20
15.59457168160528
 30
0.0
 10
39.15001228455554
 20
16.23801707181994
 30
0.0
 10
39.06389753153753
 20
16.74665229644671
 30
0.0
 10
38.95732821786236
 20
17.21631340656527
 30
0.0
 10
38.59609345398353
 20
17.60264109279228
 30
0.0
 10
38.15459971334216
 20
17.74566069256673
 30
0.0
 10
37.7685369282251
 20
17.79466448572845
 30
0.0
 10
37.35971637418797
 20
17.78843624194005
 30
0.0
 10
36.9233809468567
 20
17.75154321515177
 30
0.0
 10
36.55610928739416
 20
17.52223080542043
 30
0.0
 10
36.26112260914054
 20
17.26995580391037
 30
0.0
 10
36.09172123847515
 20
16.91729872855114
 30
0.0
 10
35.91722960507703
 20
16.52210057135654
 30
0.0
 10
35.7005030737389
 20
16.06636551674501
 30
0.0
 10
35.50071212812035
 20
15.58874428838403
 30
0.0
 10
35.29440163314564
 20
15.11329311186264
 30
0.0
 10
34.92473192973554
 20
15.08393226039618
 30
0.0
 10
34.62647581308789
 20
15.1603723829826
 30
0.0
 10
34.53529778807768
 20
15.53618716301883
 30
0.0
 10
34.59688909094345
 20
16.00270149927314
 30
0.0
 10
34.57220190537863
 20
16.74065028760456
 30
0.0
 10
34.71324891848539
 20
17.30624582700294
 30
0.0
 10
34.73644638874966
 20
17.65109632103168
 30
0.0
  0
LINE
  5
A8
330
1F
100
AcDbEntity
  8
INTERIOR_LOOPS
  6
CONTINUOUS
 62
     3
100
AcDbLine
 10
34.7364463887
 20
17.651096321
 30
0.0
 11
33.5105018163
 21
17.6510963228
 31
0.0
  0
SPLINE
  5
A9
330
1F
100
AcDbEntity
  8
INTERIOR_LOOPS
  6
CONTINUOUS
 62
     3
100
AcDbSpline
210
0.0
220
0.0
230
1.0
 70
     8
 71
     3
 72
    15
 73
    11
 74
     0
 42
0.0000000016729507
 43
0.0000000001
 40
0.0
 40
0.0
 40
0.0
 40
0.0
 40
0.2231483105113125
 40
0.344013799171698
 40
0.463097175446041
 40
0.571537905135986
 40
0.668148762233907
 40
0.7524068696915
 40
0.851734946461231
 40
1.0
 40
1.0
 40
1.0
 40
1.0
 10
33.5105018162934
 20
17.65109632277548
 30
0.0
 10
33.46826239163639
 20
17.21501992758179
 30
0.0
 10
33.3788215076086
 20
16.54275638778011
 30
0.0
 10
33.36486951721663
 20
15.63278906903776
 30
0.0
 10
33.38015200094122
 20
14.94556679542475
 30
0.0
 10
33.53195784849693
 20
14.32229986244022
 30
0.0
 10
33.88986701101312
 20
13.83147370478707
 30
0.0
 10
34.44295811174593
 20
13.69179025972392
 30
0.0
 10
35.08565080491311
 20
13.5947111524907
 30
0.0
 10
35.57938711191233
 20
13.69312718890722
 30
0.0
 10
35.84422679429478
 20
13.81335679489068
 30
0.0
  0
LINE
  5
AA
330
1F
100
AcDbEntity
  8
INTERIOR_LOOPS
  6
CONTINUOUS
 62
     3
100
AcDbLine
 10
38.1593518449
 20
10.3681825318
 30
0.0
 11
37.0334090363
 21
10.3681825318
 31
0.0
  0
LINE
  5
AB
330
1F
100
AcDbEntity
  8
INTERIOR_LOOPS
  6
CONTINUOUS
 62
     3
100
AcDbLine
 10
37.0334090363
 20
10.3681825318
 30
0.0
 11
37.0334090363
 21
9.9365291797
 31
0.0
  0
ARC
  5
AC
330
1F
100
AcDbEntity
  8
INTERIOR_LOOPS
  6
CONTINUOUS
 62
     3
100
AcDbCircle
 10
89.8442267355
 20
167.6951757794
 30
0.0
 40
166.3633765076513
100
AcDbArc
 50
250.6986813998
 51
251.4916673732
  0
ARC
  5
AD
330
1F
100
AcDbEntity
  8
INTERIOR_LOOPS
  6
CONTINUOUS
 62
     3
100
AcDbCircle
 10
44.7727934803
 20
-16.20463839
 30
0.0
 40
28.65798173225877
100
AcDbArc
 50
105.6678577823
 51
110.2471323089
  0
LINE
  5
AE
330
1F
100
AcDbEntity
  8
INTERIOR_LOOPS
  6
CONTINUOUS
 62
     3
100
AcDbLine
 10
37.0334090363
 20
11.3885101327
 30
0.0
 11
37.0334090363
 21
10.9503648783
 31
0.0
  0
LINE
  5
AF
330
1F
100
AcDbEntity
  8
INTERIOR_LOOPS
  6
CONTINUOUS
 62
     3
100
AcDbLine
 10
37.0334090363
 20
10.9503648783
 30
0.0
 11
38.1593518449
 21
10.9503648783
 31
0.0
  0
LINE
  5
B0
330
1F
100
AcDbEntity
  8
INTERIOR_LOOPS
  6
CONTINUOUS
 62
     3
100
AcDbLine
 10
38.1593518449
 20
10.9503648783
 30
0.0
 11
38.1593518449
 21
11.6800120495
 31
0.0
  0
LINE
  5
B1
330
1F
100
AcDbEntity
  8
INTERIOR_LOOPS
  6
CONTINUOUS
 62
     3
100
AcDbLine
 10
38.1593518449
 20
11.6800120495
 30
0.0
 11
39.0628220542
 21
11.9423102084
 31
0.0
  0
LINE
  5
B2
330
1F
100
AcDbEntity
  8
INTERIOR_LOOPS
  6
CONTINUOUS
 62
     3
100
AcDbLine
 10
39.0628220542
 20
11.9423102084
 30
0.0
 11
39.0628220542
 21
13.4332363449
 31
0.0
  0
ARC
  5
B3
330
1F
100
AcDbEntity
  8
INTERIOR_LOOPS
  6
CONTINUOUS
 62
     3
100
AcDbCircle
 10
46.7491156106
 20
-17.687919296
 30
0.0
 40
32.05628545324942
100
AcDbArc
 50
103.8732568533
 51
114.6365078675
  0
LINE
  5
B4
330
1F
100
AcDbEntity
  8
INTERIOR_LOOPS
  6
CONTINUOUS
 62
     3
100
AcDbLine
 10
33.3861306279
 20
11.4503042156
 30
0.0
 11
33.3861306279
 21
9.9365291797
 31
0.0
  0
ARC
  5
B5
330
1F
100
AcDbEntity
  8
INTERIOR_LOOPS
  6
CONTINUOUS
 62
     3
100
AcDbCircle
 10
45.0947430619
 20
33.8833055541
 30
0.0
 40
26.65595062749519
100
AcDbArc
 50
243.9439952297
 51
256.9213728963
  0
LINE
  5
B6
330
1F
100
AcDbEntity
  8
INTERIOR_LOOPS
  6
CONTINUOUS
 62
     3
100
AcDbLine
 10
39.0628220542
 20
7.9187983796
 30
0.0
 11
39.0628220542
 21
9.4346094976
 31
0.0
  0
LINE
  5
B7
330
1F
100
AcDbEntity
  8
INTERIOR_LOOPS
  6
CONTINUOUS
 62
     3
100
AcDbLine
 10
39.0628220542
 20
9.4346094976
 30
0.0
 11
38.1593518449
 21
9.6661907201
 31
0.0
  0
LINE
  5
B8
330
1F
100
AcDbEntity
  8
INTERIOR_LOOPS
  6
CONTINUOUS
 62
     3
100
AcDbLine
 10
38.1593518449
 20
9.6661907201
 30
0.0
 11
38.1593518449
 21
10.3681825318
 31
0.0
  0
LINE
  5
B9
330
1F
100
AcDbEntity
  8
INTERIOR_LOOPS
  6
CONTINUOUS
 62
     3
100
AcDbLine
 10
33.3861306272
 20
8.5933203453
 30
0.0
 11
33.3861306273
 21
6.9516206583
 31
0.0
  0
ARC
  5
BA
330
1F
100
AcDbEntity
  8
INTERIOR_LOOPS
  6
CONTINUOUS
 62
     3
100
AcDbCircle
 10
32.218271518
 20
1.4923110956
 30
0.0
 40
5.582826864655543
100
AcDbArc
 50
52.3973356548
 51
77.9252421762
  0
ARC
  5
BB
330
1F
100
AcDbEntity
  8
INTERIOR_LOOPS
  6
CONTINUOUS
 62
     3
100
AcDbCircle
 10
30.8519727504
 20
13.5037900958
 30
0.0
 40
8.964604591591225
100
AcDbArc
 50
286.420510322
 51
302.1683895956
  0
LINE
  5
BC
330
1F
100
AcDbEntity
  8
INTERIOR_LOOPS
  6
CONTINUOUS
 62
     3
100
AcDbLine
 10
33.386130627
 20
4.9048262431
 30
0.0
 11
33.386130627
 21
3.2418057811
 31
0.0
  0
ARC
  5
BD
330
1F
100
AcDbEntity
  8
INTERIOR_LOOPS
  6
CONTINUOUS
 62
     3
100
AcDbCircle
 10
29.3221864143
 20
14.2403865864
 30
0.0
 40
11.72537514512765
100
AcDbArc
 50
290.2791274598
 51
309.6078188828
  0
LINE
  5
BE
330
1F
100
AcDbEntity
  8
INTERIOR_LOOPS
  6
CONTINUOUS
 62
     3
100
AcDbLine
 10
36.7974546541
 20
5.2068497908
 30
0.0
 11
39.0628220542
 21
5.2068497908
 31
0.0
  0
LINE
  5
BF
330
1F
100
AcDbEntity
  8
INTERIOR_LOOPS
  6
CONTINUOUS
 62
     3
100
AcDbLine
 10
39.0628220542
 20
5.2068497908
 30
0.0
 11
39.0628220542
 21
6.626495921
 31
0.0
  0
LINE
  5
C0
330
1F
100
AcDbEntity
  8
INTERIOR_LOOPS
  6
CONTINUOUS
 62
     3
100
AcDbLine
 10
39.0628220542
 20
6.626495921
 30
0.0
 11
36.7974546527
 21
6.6264959208
 31
0.0
  0
ARC
  5
C1
330
1F
100
AcDbEntity
  8
INTERIOR_LOOPS
  6
CONTINUOUS
 62
     3
100
AcDbCircle
 10
28.4470301566
 20
-3.9149832712
 30
0.0
 40
13.4481364069869
100
AcDbArc
 50
51.6155225232
 51
68.4526350486
  0
LINE
  5
C2
330
1F
100
AcDbEntity
  8
INTERIOR_LOOPS
  6
CONTINUOUS
 62
     3
100
AcDbLine
 10
36.990661104
 20
38.8332686406
 30
0.0
 11
38.1593518449
 21
38.8332686406
 31
0.0
  0
LINE
  5
C3
330
1F
100
AcDbEntity
  8
INTERIOR_LOOPS
  6
CONTINUOUS
 62
     3
100
AcDbLine
 10
38.1593518449
 20
38.8332686406
 30
0.0
 11
38.1593518449
 21
39.581317405
 31
0.0
  0
LINE
  5
C4
330
1F
100
AcDbEntity
  8
INTERIOR_LOOPS
  6
CONTINUOUS
 62
     3
100
AcDbLine
 10
38.1593518449
 20
39.581317405
 30
0.0
 11
39.0628220542
 21
39.8417727546
 31
0.0
  0
LINE
  5
C5
330
1F
100
AcDbEntity
  8
INTERIOR_LOOPS
  6
CONTINUOUS
 62
     3
100
AcDbLine
 10
39.0628220542
 20
39.8417727546
 30
0.0
 11
39.0628220542
 21
41.3820169977
 31
0.0
  0
ARC
  5
C6
330
1F
100
AcDbEntity
  8
INTERIOR_LOOPS
  6
CONTINUOUS
 62
     3
100
AcDbCircle
 10
46.5589563029
 20
11.1520266257
 30
0.0
 40
31.14553493784831
100
AcDbArc
 50
103.9267289606
 51
115.0206118901
  0
LINE
  5
C7
330
1F
100
AcDbEntity
  8
INTERIOR_LOOPS
  6
CONTINUOUS
 62
     3
100
AcDbLine
 10
33.3861306279
 20
39.3747304349
 30
0.0
 11
33.3861306279
 21
37.7905434898
 31
0.0
  0
ARC
  5
C8
330
1F
100
AcDbEntity
  8
INTERIOR_LOOPS
  6
CONTINUOUS
 62
     3
100
AcDbCircle
 10
49.6031182049
 20
75.5202172866
 30
0.0
 40
41.06724937085576
100
AcDbArc
 50
246.7409750575
 51
255.1280645107
  0
LINE
  5
C9
330
1F
100
AcDbEntity
  8
INTERIOR_LOOPS
  6
CONTINUOUS
 62
     3
100
AcDbLine
 10
39.0628220542
 20
35.8286422619
 30
0.0
 11
39.0628220542
 21
37.3226418817
 31
0.0
  0
LINE
  5
CA
330
1F
100
AcDbEntity
  8
INTERIOR_LOOPS
  6
CONTINUOUS
 62
     3
100
AcDbLine
 10
39.0628220542
 20
37.3226418817
 30
0.0
 11
38.1593518449
 21
37.5086504542
 31
0.0
  0
LINE
  5
CB
330
1F
100
AcDbEntity
  8
INTERIOR_LOOPS
  6
CONTINUOUS
 62
     3
100
AcDbLine
 10
38.1593518449
 20
37.5086504542
 30
0.0
 11
38.1593518449
 21
38.2975664374
 31
0.0
  0
LINE
  5
CC
330
1F
100
AcDbEntity
  8
INTERIOR_LOOPS
  6
CONTINUOUS
 62
     3
100
AcDbLine
 10
38.1593518449
 20
38.2975664374
 30
0.0
 11
36.990661104
 21
38.2975664374
 31
0.0
  0
LINE
  5
CD
330
1F
100
AcDbEntity
  8
INTERIOR_LOOPS
  6
CONTINUOUS
 62
     3
100
AcDbLine
 10
36.990661104
 20
38.2975664374
 30
0.0
 11
36.990661104
 21
37.859421183
 31
0.0
  0
LINE
  5
CE
330
1F
100
AcDbEntity
  8
INTERIOR_LOOPS
  6
CONTINUOUS
 62
     3
100
AcDbLine
 10
36.990661104
 20
37.859421183
 30
0.0
 11
34.9137676131
 21
38.565417539
 31
0.0
  0
LINE
  5
CF
330
1F
100
AcDbEntity
  8
INTERIOR_LOOPS
  6
CONTINUOUS
 62
     3
100
AcDbLine
 10
34.9137676131
 20
38.565417539
 30
0.0
 11
36.990661104
 21
39.271413895
 31
0.0
  0
LINE
  5
D0
330
1F
100
AcDbEntity
  8
INTERIOR_LOOPS
  6
CONTINUOUS
 62
     3
100
AcDbLine
 10
36.990661104
 20
39.271413895
 30
0.0
 11
36.990661104
 21
38.8332686406
 31
0.0
  0
ENDSEC
  0
SECTION
  2
OBJECTS
  0
DICTIONARY
  5
C
330
0
100
AcDbDictionary
  3
ACAD_GROUP
350
D
  3
ACAD_LAYOUT
350
1A
  3
ACAD_MATERIAL
350
43
  3
ACAD_MLEADERSTYLE
350
5B
  3
ACAD_MLINESTYLE
350
17
  3
ACAD_PLOTSETTINGS
350
19
  3
ACAD_SCALELIST
350
47
  3
ACAD_VISUALSTYLE
350
2A
  3
ACDBHEADERROUNDTRIPXREC
350
D1
  3
ACDBVARIABLEDICTIONARY
350
F2
  3
DWGPROPS
350
FD
  0
DICTIONARY
  5
FE
330
8
100
AcDbDictionary
280
     1
  3
ACAD_XREC_ROUNDTRIP
360
FF
  0
DICTIONARY
  5
D
102
{ACAD_REACTORS
330
C
102
}
330
C
100
AcDbDictionary
  0
DICTIONARY
  5
1A
102
{ACAD_REACTORS
330
C
102
}
330
C
100
AcDbDictionary
  0
DICTIONARY
  5
43
102
{ACAD_REACTORS
330
C
102
}
330
C
100
AcDbDictionary
  3
BYBLOCK
350
45
  3
BYLAYER
350
44
  3
GLOBAL
350
46
  0
DICTIONARY
  5
5B
102
{ACAD_REACTORS
330
C
102
}
330
C
100
AcDbDictionary
  3
STANDARD
350
5C
  0
DICTIONARY
  5
17
102
{ACAD_REACTORS
330
C
102
}
330
C
100
AcDbDictionary
  3
STANDARD
350
18
  0
DICTIONARY
  5
19
102
{ACAD_REACTORS
330
C
102
}
330
C
100
AcDbDictionary
  0
DICTIONARY
  5
47
102
{ACAD_REACTORS
330
C
102
}
330
C
100
AcDbDictionary
  3
A0
350
48
  3
A1
350
49
  3
A2
350
4A
  3
A3
350
4B
  3
A4
350
4C
  3
A5
350
4D
  3
A6
350
4E
  3
A7
350
4F
  3
A8
350
50
  3
A9
350
51
  3
B0
350
52
  3
B1
350
53
  3
B2
350
54
  3
B3
350
55
  3
B4
350
56
  3
B5
350
57
  3
B6
350
58
  0
DICTIONARY
  5
2A
102
{ACAD_REACTORS
330
C
102
}
330
C
100
AcDbDictionary
  3
2DWIREFRAME
350
2F
  3
BASIC
350
32
  3
BRIGHTEN
350
36
  3
COLORCHANGE
350
3A
  3
CONCEPTUAL
350
34
  3
DIM
350
35
  3
EDGECOLOROFF
350
3D
  3
FACEPATTERN
350
39
  3
FLAT
350
2B
  3
FLATWITHEDGES
350
2C
  3
GOURAUD
350
2D
  3
GOURAUDWITHEDGES
350
2E
  3
HIDDEN
350
31
  3
JITTEROFF
350
3B
  3
LINEPATTERN
350
38
  3
OVERHANGOFF
350
3C
  3
REALISTIC
350
33
  3
SHADED
350
42
  3
SHADED_WITH_EDGES
350
41
  3
SHADES_OF_GRAY
350
3E
  3
SKETCHY
350
3F
  3
THICKEN
350
37
  3
WIREFRAME
350
30
  3
X-RAY
350
40
  0
DICTIONARY
  5
D1
102
{ACAD_REACTORS
330
C
102
}
330
C
100
AcDbDictionary
  3
CEPSNID
350
DB
  3
CEPSNTYPE
350
DA
  3
DIMSTYLEDATA
350
F1
  3
FINGERPRINTGUID
350
DC
  3
HYPERLINKBASE
350
D4
  3
INSUNITS
350
D9
  3
LAYOUTDICT
350
D6
  3
LWETCUNION
350
D8
  3
PLOTSETDICT
350
D7
  3
PSVPSCALE
350
DE
  3
PUCSBASE
350
E1
  3
PUCSORGBACK
350
E7
  3
PUCSORGBOTTOM
350
E3
  3
PUCSORGFRONT
350
E6
  3
PUCSORGLEFT
350
E4
  3
PUCSORGRIGHT
350
E5
  3
PUCSORGTOP
350
E2
  3
PUCSORTHOREF
350
DF
  3
PUCSORTHOVIEW
350
E0
  3
STYLESHEET
350
D5
  3
TSTACKALIGN
350
D2
  3
TSTACKSIZE
350
D3
  3
UCSBASE
350
EA
  3
UCSORGBACK
350
F0
  3
UCSORGBOTTOM
350
EC
  3
UCSORGFRONT
350
EF
  3
UCSORGLEFT
350
ED
  3
UCSORGRIGHT
350
EE
  3
UCSORGTOP
350
EB
  3
UCSORTHOREF
350
E8
  3
UCSORTHOVIEW
350
E9
  3
VERSIONGUID
350
DD
  0
DICTIONARY
  5
F2
102
{ACAD_REACTORS
330
C
102
}
330
C
100
AcDbDictionary
  3
CANNOSCALE
350
100
  3
CENTEREXE
350
F9
  3
CENTERLTYPEFILE
350
FA
  3
CMLEADERSTYLE
350
F4
  3
CTABLESTYLE
350
F3
  3
DIMASSOC
350
FB
  3
HIDETEXT
350
FC
  3
MSLTSCALE
350
101
  3
PSOLHEIGHT
350
F6
  3
PSOLWIDTH
350
F5
  0
XRECORD
  5
FD
102
{ACAD_REACTORS
330
C
102
}
330
C
100
AcDbXrecord
  1
DWGPROPS COOKIE
  2

  3

  4

  6

  7

  8
marteha
  9

300
=
301
=
302
=
303
=
304
=
305
=
306
=
307
=
308
=
309
=
 40
0.0
 41
2460773.904603947
 42
2460773.904604179
  1

 90
        0
  0
XRECORD
  5
FF
102
{ACAD_REACTORS
330
FE
102
}
330
FE
100
AcDbXrecord
102
VTR_0.000_0.000_1.000_1.000_VISUALSTYLE
340
2F
102
VTR_0.000_0.000_1.000_1.000_GRIDDISPLAY
 70
     3
102
VTR_0.000_0.000_1.000_1.000_GRIDMAJOR
 70
     5
102
VTR_0.000_0.000_1.000_1.000_DEFAULTLIGHTING
280
     1
102
VTR_0.000_0.000_1.000_1.000_DEFAULTLIGHTINGTYPE
 70
     1
102
VTR_0.000_0.000_1.000_1.000_BRIGHTNESS
141
0.0
102
VTR_0.000_0.000_1.000_1.000_CONTRAST
142
0.0
  0
MATERIAL
  5
45
102
{ACAD_REACTORS
330
43
102
}
102
{ACAD_XDICTIONARY
360
104
102
}
330
43
100
AcDbMaterial
  1
BYBLOCK
  0
MATERIAL
  5
44
102
{ACAD_REACTORS
330
43
102
}
102
{ACAD_XDICTIONARY
360
102
102
}
330
43
100
AcDbMaterial
  1
BYLAYER
  0
MATERIAL
  5
46
102
{ACAD_REACTORS
330
43
102
}
102
{ACAD_XDICTIONARY
360
106
102
}
330
43
100
AcDbMaterial
  1
GLOBAL
  0
ACAD_PROXY_OBJECT
  5
5C
102
{ACAD_REACTORS
330
5B
102
}
330
5B
100
AcDbProxyObject
 90
      499
 91
      505
 93
      610
310
40901902A4063FBFFFFFE0000000000000020400000000000020404214DD185B99185C990000000000000104090141901A00000000000004100000000000000041025764000000000000039000
340
14
340
0
340
11
340
0
 94
        0
1001
ACAD_MLEADERVER
1070
     2
  0
MLINESTYLE
  5
18
102
{ACAD_REACTORS
330
17
102
}
330
17
100
AcDbMlineStyle
  2
Standard
 70
     0
  3

 62
   256
 51
90.0
 52
90.0
 71
     2
 49
0.5
 62
   256
  6
BYLAYER
 49
-0.5
 62
   256
  6
BYLAYER
  0
ACAD_PROXY_OBJECT
  5
48
102
{ACAD_REACTORS
330
47
102
}
330
47
100
AcDbProxyObject
 90
      499
 91
      503
 93
       41
310
903313A31580
  0
ACAD_PROXY_OBJECT
  5
49
102
{ACAD_REACTORS
330
47
102
}
330
47
100
AcDbProxyObject
 90
      499
 91
      503
 93
      105
310
903313A324000000000000004000
  0
ACAD_PROXY_OBJECT
  5
4A
102
{ACAD_REACTORS
330
47
102
}
330
47
100
AcDbProxyObject
 90
      499
 91
      503
 93
      105
310
903313A344000000000000104000
  0
ACAD_PROXY_OBJECT
  5
4B
102
{ACAD_REACTORS
330
47
102
}
330
47
100
AcDbProxyObject
 90
      499
 91
      503
 93
      105
310
903313A354000000000000144000
  0
ACAD_PROXY_OBJECT
  5
4C
102
{ACAD_REACTORS
330
47
102
}
330
47
100
AcDbProxyObject
 90
      499
 91
      503
 93
      105
310
903313A384000000000000204000
  0
ACAD_PROXY_OBJECT
  5
4D
102
{ACAD_REACTORS
330
47
102
}
330
47
100
AcDbProxyObject
 90
      499
 91
      503
 93
      113
310
904313A31304000000000000244000
  0
ACAD_PROXY_OBJECT
  5
4E
102
{ACAD_REACTORS
330
47
102
}
330
47
100
AcDbProxyObject
 90
      499
 91
      503
 93
      113
310
904313A31364000000000000304000
  0
ACAD_PROXY_OBJECT
  5
4F
102
{ACAD_REACTORS
330
47
102
}
330
47
100
AcDbProxyObject
 90
      499
 91
      503
 93
      113
310
904313A32304000000000000344000
  0
ACAD_PROXY_OBJECT
  5
50
102
{ACAD_REACTORS
330
47
102
}
330
47
100
AcDbProxyObject
 90
      499
 91
      503
 93
      113
310
904313A333040000000000003E4000
  0
ACAD_PROXY_OBJECT
  5
51
102
{ACAD_REACTORS
330
47
102
}
330
47
100
AcDbProxyObject
 90
      499
 91
      503
 93
      113
310
904313A34304000000000000444000
  0
ACAD_PROXY_OBJECT
  5
52
102
{ACAD_REACTORS
330
47
102
}
330
47
100
AcDbProxyObject
 90
      499
 91
      503
 93
      113
310
904313A35304000000000000494000
  0
ACAD_PROXY_OBJECT
  5
53
102
{ACAD_REACTORS
330
47
102
}
330
47
100
AcDbProxyObject
 90
      499
 91
      503
 93
      121
310
905313A3130304000000000000594000
  0
ACAD_PROXY_OBJECT
  5
54
102
{ACAD_REACTORS
330
47
102
}
330
47
100
AcDbProxyObject
 90
      499
 91
      503
 93
      105
310
903323A310000000000000010100
  0
ACAD_PROXY_OBJECT
  5
55
102
{ACAD_REACTORS
330
47
102
}
330
47
100
AcDbProxyObject
 90
      499
 91
      503
 93
      105
310
903343A310000000000000410100
  0
ACAD_PROXY_OBJECT
  5
56
102
{ACAD_REACTORS
330
47
102
}
330
47
100
AcDbProxyObject
 90
      499
 91
      503
 93
      105
310
903383A310000000000000810100
  0
ACAD_PROXY_OBJECT
  5
57
102
{ACAD_REACTORS
330
47
102
}
330
47
100
AcDbProxyObject
 90
      499
 91
      503
 93
      113
310
90431303A310000000000000910100
  0
ACAD_PROXY_OBJECT
  5
58
102
{ACAD_REACTORS
330
47
102
}
330
47
100
AcDbProxyObject
 90
      499
 91
      503
 93
      121
310
9053130303A310000000000001650100
  0
ACAD_PROXY_OBJECT
  5
2F
102
{ACAD_REACTORS
330
2A
102
}
330
2A
100
AcDbProxyObject
 90
      499
 91
      501
 93
      436
310
42CC9915DA5C99599C985B595049028333333333333E33F0000000000000F90107901411070040501600405405064090741402480A0340
1001
ACAD
1000
AcDbSavedByObjectVersion
1070
     0
  0
ACAD_PROXY_OBJECT
  5
32
102
{ACAD_REACTORS
330
2A
102
}
330
2A
100
AcDbProxyObject
 90
      499
 91
      501
 93
      388
310
4150985CDA58D07406404333333333333E33F0000000000000F90107A41107004050150841D405064090741402480A0350
1001
ACAD
1000
AcDbSavedByObjectVersion
1070
     0
  0
ACAD_PROXY_OBJECT
  5
36
102
{ACAD_REACTORS
330
2A
102
}
330
2A
100
AcDbProxyObject
 90
      499
 91
      501
 93
      428
310
42109C9A59DA1D195B90C409028333333333333E33F0000000000000F9010790141107004050150841D405064090741402480A029950
1001
ACAD
1000
AcDbSavedByObjectVersion
1070
     0
  0
ACAD_PROXY_OBJECT
  5
3A
102
{ACAD_REACTORS
330
2A
102
}
330
2A
100
AcDbProxyObject
 90
      499
 91
      501
 93
      452
310
42D0DBDB1BDC90DA185B99D95104090240C333333333333E33F0000000000000F90108901411070040501508421405064090741402480A0350
1001
ACAD
1000
AcDbSavedByObjectVersion
1070
     0
  0
ACAD_PROXY_OBJECT
  5
34
102
{ACAD_REACTORS
330
2A
102
}
330
2A
100
AcDbProxyObject
 90
      499
 91
      501
 93
      500
310
4290DBDB98D95C1D1D585B10940D028333333333333E33F0000000000000F90107902409070040501000000000018199010841D405064090740C02480A0340
1001
ACAD
1000
AcDbSavedByObjectVersion
1070
     0
  0
ACAD_PROXY_OBJECT
  5
35
102
{ACAD_REACTORS
330
2A
102
}
330
2A
100
AcDbProxyObject
 90
      499
 91
      501
 93
      412
310
40D11A5B50B409028333333333333E33F0000000000000F9010790141107004050150841D405064090741402480A02677FFFFFD0
1001
ACAD
1000
AcDbSavedByObjectVersion
1070
     0
  0
ACAD_PROXY_OBJECT
  5
3D
102
{ACAD_REACTORS
330
2A
102
}
330
2A
100
AcDbProxyObject
 90
      499
 91
      501
 93
      452
310
43115919D950DBDB1BDC93D999916409028333333333333E33F0000000000000F9010790141107004050150841D405064090741402480A0350
1001
ACAD
1000
AcDbSavedByObjectVersion
1070
     0
  0
ACAD_PROXY_OBJECT
  5
39
102
{ACAD_REACTORS
330
2A
102
}
330
2A
100
AcDbProxyObject
 90
      499
 91
      501
 93
      444
310
42D19858D95C185D1D195C9B90F409028333333333333E33F0000000000000F9010790141107004050150841D405064090741402480A0350
1001
ACAD
1000
AcDbSavedByObjectVersion
1070
     0
  0
ACAD_PROXY_OBJECT
  5
2B
102
{ACAD_REACTORS
330
2A
102
}
330
2A
100
AcDbProxyObject
 90
      499
 91
      501
 93
      380
310
41119B185D240901404333333333333E33F0000000000000F9010740A907004050150841D405064090741402480A1B50
1001
ACAD
1000
AcDbSavedByObjectVersion
1070
     0
  0
ACAD_PROXY_OBJECT
  5
2C
102
{ACAD_REACTORS
330
2A
102
}
330
2A
100
AcDbProxyObject
 90
      499
 91
      501
 93
      468
310
43519B185D15DA5D1A115919D95CD0140901404333333333333E33F0000000000000F90107409019070040501600405405064090741402480A1B50
1001
ACAD
1000
AcDbSavedByObjectVersion
1070
     0
  0
ACAD_PROXY_OBJECT
  5
2D
102
{ACAD_REACTORS
330
2A
102
}
330
2A
100
AcDbProxyObject
 90
      499
 91
      501
 93
      404
310
41D1DBDD5C985D5910240902404333333333333E33F0000000000000F9010740A9070040501641D405064090741402480A1B50
1001
ACAD
1000
AcDbSavedByObjectVersion
1070
     0
  0
ACAD_PROXY_OBJECT
  5
2E
102
{ACAD_REACTORS
330
2A
102
}
330
2A
100
AcDbProxyObject
 90
      499
 91
      501
 93
      492
310
4411DBDD5C985D5915DA5D1A115919D95CD0340902404333333333333E33F0000000000000F90107409019070040501600405405064090741402480A1B50
1001
ACAD
1000
AcDbSavedByObjectVersion
1070
     0
  0
ACAD_PROXY_OBJECT
  5
31
102
{ACAD_REACTORS
330
2A
102
}
330
2A
100
AcDbProxyObject
 90
      499
 91
      501
 93
      476
310
41921A5919195B90640502408333333333333E33F0000000000000F901079024090700405020000000000001110200405405064090740C02480A0340
1001
ACAD
1000
AcDbSavedByObjectVersion
1070
     0
  0
ACAD_PROXY_OBJECT
  5
3B
102
{ACAD_REACTORS
330
2A
102
}
330
2A
100
AcDbProxyObject
 90
      499
 91
      501
 93
      428
310
42529A5D1D195C93D999914409028333333333333E33F0000000000000F9010790141107004050150A41D405064090741402480A0350
1001
ACAD
1000
AcDbSavedByObjectVersion
1070
     0
  0
ACAD_PROXY_OBJECT
  5
38
102
{ACAD_REACTORS
330
2A
102
}
330
2A
100
AcDbProxyObject
 90
      499
 91
      501
 93
      444
310
42D31A5B995C185D1D195C9B90E409028333333333333E33F0000000000000F9010790141107004050750841D405064090741402483A0350
1001
ACAD
1000
AcDbSavedByObjectVersion
1070
     0
  0
ACAD_PROXY_OBJECT
  5
3C
102
{ACAD_REACTORS
330
2A
102
}
330
2A
100
AcDbProxyObject
 90
      499
 91
      501
 93
      444
310
42D3DD995C9A185B99D3D999915409028333333333333E33F0000000000000F9010790141107004050150941D405064090741402480A0350
1001
ACAD
1000
AcDbSavedByObjectVersion
1070
     0
  0
ACAD_PROXY_OBJECT
  5
33
102
{ACAD_REACTORS
330
2A
102
}
330
2A
100
AcDbProxyObject
 90
      499
 91
      501
 93
      428
310
425499585B1A5CDD1A58D08409038333333333333E33F0000000000000F9010740A907004050150800405405064090740C02480A1B40
1001
ACAD
1000
AcDbSavedByObjectVersion
1070
     0
  0
ACAD_PROXY_OBJECT
  5
42
102
{ACAD_REACTORS
330
2A
102
}
330
2A
100
AcDbProxyObject
 90
      499
 91
      501
 93
      420
310
4194DA1859195911B40902404333333333333E33F0000000000000F9010740A41107004050150800405405064090840C02480A0B40
1001
ACAD
1000
AcDbSavedByObjectVersion
1070
     0
  0
ACAD_PROXY_OBJECT
  5
41
102
{ACAD_REACTORS
330
2A
102
}
330
2A
100
AcDbProxyObject
 90
      499
 91
      501
 93
      516
310
4454DA18591959081DDA5D1A08195919D95CD1A40902404333333333333E33F0000000000000F901074090142907004050250800405405064090740C02480A0B40
1001
ACAD
1000
AcDbSavedByObjectVersion
1070
     0
  0
ACAD_PROXY_OBJECT
  5
3E
102
{ACAD_REACTORS
330
2A
102
}
330
2A
100
AcDbProxyObject
 90
      499
 91
      501
 93
      532
310
4394DA1859195CC81BD98811DC985E5174090240C333333333333E33F0000000000000F901079024090741D01000000000000111010841D405064090740C02480A0340
1001
ACAD
1000
AcDbSavedByObjectVersion
1070
     0
  0
ACAD_PROXY_OBJECT
  5
3F
102
{ACAD_REACTORS
330
2A
102
}
330
2A
100
AcDbProxyObject
 90
      499
 91
      501
 93
      476
310
41D4DAD95D18DA1E51840502408333333333333E33F0000000000000F901079024090741D01000000000000111010B41D405064090741802480A0340
1001
ACAD
1000
AcDbSavedByObjectVersion
1070
     0
  0
ACAD_PROXY_OBJECT
  5
37
102
{ACAD_REACTORS
330
2A
102
}
330
2A
100
AcDbProxyObject
 90
      499
 91
      501
 93
      412
310
41D51A1A58DAD95B90D409028333333333333E33F0000000000000F9010790141107004050150C41D405064090741402480A0350
1001
ACAD
1000
AcDbSavedByObjectVersion
1070
     0
  0
ACAD_PROXY_OBJECT
  5
30
102
{ACAD_REACTORS
330
2A
102
}
330
2A
100
AcDbProxyObject
 90
      499
 91
      501
 93
      420
310
4255DA5C99599C985B595059028333333333333E33F0000000000000F90107901411070040501600405405064090740C02480A0340
1001
ACAD
1000
AcDbSavedByObjectVersion
1070
     0
  0
ACAD_PROXY_OBJECT
  5
40
102
{ACAD_REACTORS
330
2A
102
}
330
2A
100
AcDbProxyObject
 90
      499
 91
      501
 93
      404
310
41560B54985E51940902404000000000000E03F0000000000000F9010740501907004050150841D405064090740C02480A1B40
1001
ACAD
1000
AcDbSavedByObjectVersion
1070
     0
  0
XRECORD
  5
DB
102
{ACAD_REACTORS
330
D1
102
}
330
D1
100
AcDbXrecord
340
0
  0
XRECORD
  5
DA
102
{ACAD_REACTORS
330
D1
102
}
330
D1
100
AcDbXrecord
 90
        0
  0
XRECORD
  5
F1
102
{ACAD_REACTORS
330
D1
102
}
330
D1
100
AcDbXrecord
1000
DSTYLE
1002
{
1070
   340
340
11
1002
}
  0
XRECORD
  5
DC
102
{ACAD_REACTORS
330
D1
102
}
330
D1
100
AcDbXrecord
  1
{5d0b8ad9-7bc6-47c7-ad3b-81984715963f}
  0
XRECORD
  5
D4
102
{ACAD_REACTORS
330
D1
102
}
330
D1
100
AcDbXrecord
  1

  0
XRECORD
  5
D9
102
{ACAD_REACTORS
330
D1
102
}
330
D1
100
AcDbXrecord
 90
        4
  0
XRECORD
  5
D6
102
{ACAD_REACTORS
330
D1
102
}
330
D1
100
AcDbXrecord
340
1A
  0
XRECORD
  5
D8
102
{ACAD_REACTORS
330
D1
102
}
330
D1
100
AcDbXrecord
 90
    10781
  0
XRECORD
  5
D7
102
{ACAD_REACTORS
330
D1
102
}
330
D1
100
AcDbXrecord
340
19
  0
XRECORD
  5
DE
102
{ACAD_REACTORS
330
D1
102
}
330
D1
100
AcDbXrecord
 40
0.0
  0
XRECORD
  5
E1
102
{ACAD_REACTORS
330
D1
102
}
330
D1
100
AcDbXrecord
340
0
  0
XRECORD
  5
E7
102
{ACAD_REACTORS
330
D1
102
}
330
D1
100
AcDbXrecord
 10
0.0
 20
0.0
 30
0.0
  0
XRECORD
  5
E3
102
{ACAD_REACTORS
330
D1
102
}
330
D1
100
AcDbXrecord
 10
0.0
 20
0.0
 30
0.0
  0
XRECORD
  5
E6
102
{ACAD_REACTORS
330
D1
102
}
330
D1
100
AcDbXrecord
 10
0.0
 20
0.0
 30
0.0
  0
XRECORD
  5
E4
102
{ACAD_REACTORS
330
D1
102
}
330
D1
100
AcDbXrecord
 10
0.0
 20
0.0
 30
0.0
  0
XRECORD
  5
E5
102
{ACAD_REACTORS
330
D1
102
}
330
D1
100
AcDbXrecord
 10
0.0
 20
0.0
 30
0.0
  0
XRECORD
  5
E2
102
{ACAD_REACTORS
330
D1
102
}
330
D1
100
AcDbXrecord
 10
0.0
 20
0.0
 30
0.0
  0
XRECORD
  5
DF
102
{ACAD_REACTORS
330
D1
102
}
330
D1
100
AcDbXrecord
340
0
  0
XRECORD
  5
E0
102
{ACAD_REACTORS
330
D1
102
}
330
D1
100
AcDbXrecord
 70
     0
  0
XRECORD
  5
D5
102
{ACAD_REACTORS
330
D1
102
}
330
D1
100
AcDbXrecord
  1

  0
XRECORD
  5
D2
102
{ACAD_REACTORS
330
D1
102
}
330
D1
100
AcDbXrecord
 90
        1
  0
XRECORD
  5
D3
102
{ACAD_REACTORS
330
D1
102
}
330
D1
100
AcDbXrecord
 90
       70
  0
XRECORD
  5
EA
102
{ACAD_REACTORS
330
D1
102
}
330
D1
100
AcDbXrecord
340
0
  0
XRECORD
  5
F0
102
{ACAD_REACTORS
330
D1
102
}
330
D1
100
AcDbXrecord
 10
0.0
 20
0.0
 30
0.0
  0
XRECORD
  5
EC
102
{ACAD_REACTORS
330
D1
102
}
330
D1
100
AcDbXrecord
 10
0.0
 20
0.0
 30
0.0
  0
XRECORD
  5
EF
102
{ACAD_REACTORS
330
D1
102
}
330
D1
100
AcDbXrecord
 10
0.0
 20
0.0
 30
0.0
  0
XRECORD
  5
ED
102
{ACAD_REACTORS
330
D1
102
}
330
D1
100
AcDbXrecord
 10
0.0
 20
0.0
 30
0.0
  0
XRECORD
  5
EE
102
{ACAD_REACTORS
330
D1
102
}
330
D1
100
AcDbXrecord
 10
0.0
 20
0.0
 30
0.0
  0
XRECORD
  5
EB
102
{ACAD_REACTORS
330
D1
102
}
330
D1
100
AcDbXrecord
 10
0.0
 20
0.0
 30
0.0
  0
XRECORD
  5
E8
102
{ACAD_REACTORS
330
D1
102
}
330
D1
100
AcDbXrecord
340
0
  0
XRECORD
  5
E9
102
{ACAD_REACTORS
330
D1
102
}
330
D1
100
AcDbXrecord
 70
     0
  0
XRECORD
  5
DD
102
{ACAD_REACTORS
330
D1
102
}
330
D1
100
AcDbXrecord
  1
{FAEB1C32-E019-11D5-929B-00C0DF256EC4}
  0
DICTIONARYVAR
  5
100
102
{ACAD_REACTORS
330
F2
102
}
330
F2
100
DictionaryVariables
280
     0
  1
1:1
  0
DICTIONARYVAR
  5
F9
102
{ACAD_REACTORS
330
F2
102
}
330
F2
100
DictionaryVariables
280
     0
  1
3.500000
  0
DICTIONARYVAR
  5
FA
102
{ACAD_REACTORS
330
F2
102
}
330
F2
100
DictionaryVariables
280
     0
  1
acadiso.lin
  0
DICTIONARYVAR
  5
F4
102
{ACAD_REACTORS
330
F2
102
}
330
F2
100
DictionaryVariables
280
     0
  1
Standard
  0
DICTIONARYVAR
  5
F3
102
{ACAD_REACTORS
330
F2
102
}
330
F2
100
DictionaryVariables
280
     0
  1
Standard
  0
DICTIONARYVAR
  5
FB
102
{ACAD_REACTORS
330
F2
102
}
330
F2
100
DictionaryVariables
280
     0
  1
2
  0
DICTIONARYVAR
  5
FC
102
{ACAD_REACTORS
330
F2
102
}
330
F2
100
DictionaryVariables
280
     0
  1
1
  0
DICTIONARYVAR
  5
101
102
{ACAD_REACTORS
330
F2
102
}
330
F2
100
DictionaryVariables
280
     0
  1
1
  0
DICTIONARYVAR
  5
F6
102
{ACAD_REACTORS
330
F2
102
}
330
F2
100
DictionaryVariables
280
     0
  1
80.000000
  0
DICTIONARYVAR
  5
F5
102
{ACAD_REACTORS
330
F2
102
}
330
F2
100
DictionaryVariables
280
     0
  1
5.000000
  0
DICTIONARY
  5
104
330
45
100
AcDbDictionary
280
     1
  3
ACAD_XREC_ROUNDTRIP
360
105
  0
DICTIONARY
  5
102
330
44
100
AcDbDictionary
280
     1
  3
ACAD_XREC_ROUNDTRIP
360
103
  0
DICTIONARY
  5
106
330
46
100
AcDbDictionary
280
     1
  3
ACAD_XREC_ROUNDTRIP
360
107
  0
XRECORD
  5
105
102
{ACAD_REACTORS
330
104
102
}
330
104
100
AcDbXrecord
102
MATERIAL
148
0.0
149
0.0
149
0.0
 93
        0
 94
      127
282
     0
 72
     1
 77
     1
171
     1
175
     1
179
     1
273
     0
  0
XRECORD
  5
103
102
{ACAD_REACTORS
330
102
102
}
330
102
100
AcDbXrecord
102
MATERIAL
148
0.0
149
0.0
149
0.0
 93
        0
 94
      127
282
     0
 72
     1
 77
     1
171
     1
175
     1
179
     1
273
     0
  0
XRECORD
  5
107
102
{ACAD_REACTORS
330
106
102
}
330
106
100
AcDbXrecord
102
MATERIAL
148
0.0
149
0.0
149
0.0
 93
        0
 94
      127
282
     0
 72
     1
 77
     1
171
     1
175
     1
179
     1
273
     0
  0
ENDSEC
  0
EOF
